<?xml version="1.0" standalone="no"?>
<!DOCTYPE svg PUBLIC "-//W3C//DTD SVG 20010904//EN"
 "http://www.w3.org/TR/2001/REC-SVG-20010904/DTD/svg10.dtd">
<svg version="1.0" xmlns="http://www.w3.org/2000/svg"
 width="714.000000pt" height="775.000000pt" viewBox="0 0 714.000000 775.000000"
 preserveAspectRatio="xMidYMid meet">

<g transform="translate(0.000000,775.000000) scale(0.100000,-0.100000)"
fill="#000000" stroke="none">
<path d="M3113 7406 c-130 -75 -304 -237 -405 -380 -68 -95 -132 -233 -154
-331 -24 -104 -24 -263 0 -367 32 -140 136 -313 244 -408 171 -152 343 -214
680 -244 85 -8 156 -17 159 -20 14 -13 -11 -18 -134 -23 -152 -6 -346 14 -443
47 -143 48 -297 140 -396 237 -115 113 -150 174 -218 381 -21 61 -41 112 -46
112 -16 0 -120 -299 -191 -545 -38 -135 -84 -357 -106 -524 -25 -181 -24 -675
1 -851 34 -243 71 -407 143 -630 37 -114 77 -205 188 -425 153 -302 212 -408
224 -401 4 3 16 -21 26 -52 18 -59 98 -224 134 -276 l19 -29 6 34 c3 19 8 86
11 149 25 483 135 892 372 1395 187 396 246 556 348 950 26 99 55 202 66 229
10 28 17 51 15 54 -5 4 -147 -170 -252 -308 -354 -468 -513 -749 -645 -1140
-22 -63 -39 -123 -40 -135 0 -12 -3 -15 -6 -7 -3 8 0 40 7 72 7 32 10 71 6 85
-10 40 -144 171 -185 180 -41 9 -53 -2 -76 -73 -9 -29 -19 -51 -22 -48 -6 6
44 165 99 311 114 308 339 643 592 882 152 143 275 223 451 293 136 54 379
101 360 70 -4 -6 -34 -23 -68 -39 -34 -16 -71 -36 -82 -46 -20 -16 -20 -16 5
-10 29 8 102 23 177 37 110 20 198 109 298 301 l60 116 -97 97 c-100 100 -154
182 -178 274 -39 146 -140 259 -303 339 -146 72 -225 92 -387 98 -151 6 -148
7 -168 -64 -12 -40 -119 -214 -141 -227 -15 -9 -14 1 4 60 29 93 55 268 71
468 8 110 22 234 30 276 7 41 14 76 14 78 0 8 -31 -2 -67 -22z m607 -1007 c40
-8 63 -20 85 -45 33 -36 102 -170 93 -180 -7 -7 -85 19 -137 45 -21 11 -73 50
-117 88 -43 37 -92 78 -109 91 l-30 23 80 -5 c44 -2 105 -10 135 -17z m-1023
-2571 c-3 -8 -6 -5 -6 6 -1 11 2 17 5 13 3 -3 4 -12 1 -19z"/>
<path d="M3754 7293 c-214 -144 -414 -308 -414 -340 0 -6 40 -12 108 -16 81
-3 126 -11 186 -32 90 -31 89 -32 107 55 12 60 80 268 110 338 35 81 30 81
-97 -5z"/>
<path d="M3672 5084 c-5 -10 -22 -73 -37 -139 -52 -237 -199 -698 -290 -910
-93 -217 -107 -252 -146 -380 -50 -161 -122 -445 -148 -585 -50 -260 -76 -767
-52 -1005 41 -409 117 -807 207 -1092 64 -201 64 -199 64 373 0 680 11 922 55
1223 19 130 43 268 53 306 44 163 112 405 132 465 33 101 136 498 169 649 66
300 92 593 73 799 -11 115 -41 265 -62 301 -6 12 -9 11 -18 -5z"/>
<path d="M3960 4802 c0 -46 156 -264 320 -448 194 -217 379 -371 770 -639 135
-92 290 -202 345 -244 120 -92 334 -297 418 -401 225 -280 377 -636 403 -947
l7 -82 -39 6 c-21 3 -43 10 -48 14 -19 17 -46 9 -60 -18 l-14 -28 -10 40 c-6
22 -15 66 -21 98 -29 162 -97 316 -198 451 -181 241 -490 476 -749 569 -107
38 -209 49 -410 45 l-179 -4 -95 -38 c-135 -53 -206 -95 -288 -171 -114 -106
-205 -242 -230 -346 -45 -184 -56 -462 -22 -593 46 -180 195 -419 340 -543
118 -101 293 -198 377 -210 l46 -6 -84 100 c-170 203 -228 383 -184 571 14 60
82 209 91 200 2 -3 -3 -27 -11 -54 -44 -143 -28 -299 47 -443 121 -236 286
-374 548 -460 253 -82 608 -61 747 45 46 35 53 24 14 -23 -17 -21 -27 -39 -22
-41 6 -2 32 9 58 24 137 79 232 179 321 335 30 52 85 148 123 214 98 169 146
270 165 344 15 60 15 73 0 180 -34 237 -91 411 -213 655 -138 276 -266 456
-483 679 -289 298 -611 528 -1060 757 -155 79 -415 229 -548 317 -188 125
-172 116 -172 95z"/>
<path d="M3914 4629 c-3 -6 -12 -79 -20 -162 -39 -426 -122 -834 -299 -1472
-86 -310 -109 -428 -109 -575 0 -116 2 -132 33 -220 34 -96 86 -208 115 -245
14 -18 15 -5 16 160 1 341 8 427 47 540 48 139 83 211 147 310 144 220 377
374 646 426 96 18 385 16 498 -5 99 -17 191 -50 244 -87 l33 -23 -20 23 c-11
13 -130 111 -265 219 -359 286 -673 605 -856 869 -161 233 -193 270 -210 242z"/>
<path d="M1570 3129 c-271 -23 -532 -229 -675 -532 -56 -118 -74 -192 -86
-347 -14 -168 -3 -333 28 -440 29 -103 134 -323 200 -422 62 -94 222 -260 344
-358 172 -138 452 -302 671 -394 357 -149 900 -266 1478 -318 225 -20 866 -17
1058 5 673 77 1102 243 1408 544 74 73 199 222 252 300 104 155 177 338 221
552 24 113 16 154 -14 74 -53 -145 -228 -420 -347 -548 -201 -215 -495 -388
-813 -478 -300 -85 -631 -118 -1165 -118 -449 1 -785 32 -1271 116 -626 110
-1056 278 -1361 532 -214 178 -380 427 -437 655 -24 96 -30 279 -12 374 38
197 146 367 300 468 89 59 148 77 263 84 119 6 203 -9 280 -50 77 -41 200
-169 236 -244 24 -54 27 -69 27 -174 0 -133 -15 -178 -85 -254 -117 -127 -267
-164 -410 -100 -102 46 -140 99 -140 196 1 99 31 148 142 230 23 18 23 18 -22
12 -106 -15 -187 -74 -220 -160 -25 -69 -27 -199 -4 -268 25 -74 128 -178 219
-221 375 -181 805 130 805 580 0 102 -20 186 -66 277 -150 299 -449 457 -804
427z"/>
<path d="M4035 1151 c-175 -28 -313 -100 -448 -234 l-72 -70 30 -9 c65 -18
1326 14 1478 38 187 29 423 101 507 154 57 37 115 95 85 87 -267 -76 -522 -85
-825 -28 -91 17 -217 38 -280 46 -138 18 -406 27 -475 16z"/>
</g>
</svg>
